<svg width="156" height="44" viewBox="0 0 156 44" fill="none" xmlns="http://www.w3.org/2000/svg">
<path d="M33.5306 33.9054C32.5603 36.1289 30.102 39 30.102 39L19 26.527L35 26C35 26 34.7742 31.0555 33.5306 33.9054Z" fill="#09A129"/>
<path d="M35.9794 26.421C35.9793 26.4217 35.9786 26.4236 35.9786 26.4248C35.9784 26.4273 35.9788 26.4309 35.9786 26.4355C35.978 26.4449 35.9772 26.4593 35.9762 26.4773C35.9741 26.5132 35.9704 26.5657 35.9659 26.6331C35.9567 26.7684 35.9427 26.9642 35.9214 27.2069C35.8787 27.6921 35.8082 28.3668 35.6966 29.1252C35.489 30.5367 35.1347 32.2755 34.5355 33.6199L34.4124 33.8828C33.8864 34.9549 32.9689 36.1631 32.1999 37.0886C31.8126 37.5546 31.4577 37.9556 31.1992 38.24C31.0699 38.3823 30.9643 38.4956 30.8911 38.5736C30.8545 38.6127 30.8257 38.6427 30.8061 38.6633C30.7964 38.6735 30.789 38.6815 30.7839 38.6869C30.7815 38.6894 30.7796 38.6915 30.7783 38.693C30.7776 38.6937 30.7771 38.6948 30.7767 38.6952L30.4765 38.4323L30.7759 38.696L30.4821 39L18 26.5274L36 26L35.9794 26.421ZM19.8496 27.251L30.4654 37.8585C30.5021 37.8185 30.5429 37.7759 30.5853 37.7293C30.8379 37.4513 31.1855 37.0596 31.5637 36.6044C32.326 35.6871 33.1927 34.5378 33.6762 33.5522L33.789 33.3098C34.3417 32.0683 34.6855 30.4162 34.8913 29.0165C35.0003 28.2757 35.0688 27.6159 35.1105 27.1415C35.1216 27.0152 35.1292 26.902 35.1367 26.8041L19.8496 27.251Z" fill="#09A129"/>
<path d="M25.3796 18.9869L31 13.5179C31 13.5179 23.8468 7.39534 17.0342 8.04882C11.2435 8.60429 7.9088 10.4415 4.94192 13.5179C1.97504 16.5942 0.074933 22.0632 0.00279707 25.4814C-0.0765524 29.2413 1.53832 34.8813 4.09034 37.9576C7.44235 41.9983 10.9692 43.418 16.1827 43.9393C21.4624 44.4673 27.4234 41.3757 27.4234 41.3757L21.4624 35.394C21.4624 35.394 18.2048 36.1613 16.1827 35.7358C11.2611 34.7001 8.04303 30.5181 8.34821 25.4814C8.63148 20.806 11.6294 17.4541 16.1827 16.4233C21.1218 15.3051 25.3796 18.9869 25.3796 18.9869Z" fill="white"/>
<path d="M112.496 12.3169H120.965V32.3016C120.965 34.6779 120.396 36.7342 119.259 38.4707C118.132 40.197 116.558 41.5324 114.537 42.4768C112.516 43.411 110.17 43.8782 107.5 43.8782C104.809 43.8782 102.453 43.411 100.432 42.4768C98.4111 41.5324 96.8371 40.197 95.7099 38.4707C94.5929 36.7342 94.0344 34.6779 94.0344 32.3016V12.3169H102.504V31.5705C102.504 32.5352 102.717 33.3984 103.143 34.16C103.57 34.9114 104.159 35.5004 104.91 35.9269C105.672 36.3534 106.535 36.5667 107.5 36.5667C108.475 36.5667 109.338 36.3534 110.089 35.9269C110.841 35.5004 111.43 34.9114 111.856 34.16C112.283 33.3984 112.496 32.5352 112.496 31.5705V12.3169Z" fill="#09A129"/>
<path d="M85.3215 44.0001C84.1435 44.0001 83.1331 43.5889 82.2903 42.7663C81.4576 41.9336 81.0463 40.9232 81.0565 39.7351C81.0463 38.5775 81.4576 37.5874 82.2903 36.7648C83.1331 35.9423 84.1435 35.531 85.3215 35.531C86.4385 35.531 87.4236 35.9423 88.2766 36.7648C89.1397 37.5874 89.5764 38.5775 89.5865 39.7351C89.5764 40.5272 89.3682 41.2482 88.962 41.8981C88.566 42.5378 88.0481 43.0507 87.4083 43.4366C86.7686 43.8123 86.073 44.0001 85.3215 44.0001Z" fill="#09A129"/>
<path d="M51.9781 43.5126V12.3169H65.4434C67.7587 12.3169 69.7846 12.7383 71.5211 13.5812C73.2576 14.424 74.6082 15.6375 75.5729 17.2217C76.5376 18.8058 77.0199 20.7048 77.0199 22.9186C77.0199 25.1526 76.5224 27.0363 75.5272 28.5697C74.5422 30.1031 73.156 31.2608 71.3688 32.0427C69.5917 32.8246 67.515 33.2156 65.1388 33.2156H57.0961V26.6352H63.4328C64.4279 26.6352 65.2759 26.5134 65.9765 26.2697C66.6874 26.0158 67.2307 25.6147 67.6064 25.0663C67.9923 24.5179 68.1852 23.802 68.1852 22.9186C68.1852 22.0249 67.9923 21.2989 67.6064 20.7403C67.2307 20.1717 66.6874 19.7553 65.9765 19.4913C65.2759 19.2171 64.4279 19.08 63.4328 19.08H60.4472V43.5126H51.9781ZM70.2568 29.1942L78.0557 43.5126H68.8554L61.2393 29.1942H70.2568Z" fill="#09A129"/>
<path d="M43.2652 44.0001C42.0873 44.0001 41.0768 43.5889 40.234 42.7663C39.4013 41.9336 38.99 40.9232 39.0002 39.7351C38.99 38.5775 39.4013 37.5874 40.234 36.7648C41.0768 35.9423 42.0873 35.531 43.2652 35.531C44.3823 35.531 45.3673 35.9423 46.2203 36.7648C47.0834 37.5874 47.5201 38.5775 47.5303 39.7351C47.5201 40.5272 47.3119 41.2482 46.9057 41.8981C46.5097 42.5378 45.9918 43.0507 45.352 43.4366C44.7123 43.8123 44.0167 44.0001 43.2652 44.0001Z" fill="#09A129"/>
</svg>
