<svg width="44" height="44" viewBox="0 0 44 44" fill="none" xmlns="http://www.w3.org/2000/svg">
<path d="M41.5909 31.3999C40.3495 34.0438 37.2043 37.4576 37.2043 37.4576L23 22.6267L43.4709 22C43.4709 22 43.182 28.0113 41.5909 31.3999Z" fill="#09A129" stroke="#09A129"/>
<path d="M31.1275 13.4284L38.0208 6.74405C38.0208 6.74405 29.2476 -0.739031 20.8921 0.0596727C13.7899 0.738571 9.69996 2.98408 6.06115 6.74405C2.42235 10.504 0.0919036 17.1884 0.00343054 21.3661C-0.0938898 25.9616 1.88672 32.8549 5.01671 36.6148C9.12787 41.5534 13.4535 43.2887 19.8477 43.9259C26.3231 44.5711 33.6342 40.7926 33.6342 40.7926L26.3231 33.4815C26.3231 33.4815 22.3278 34.4194 19.8477 33.8993C13.8115 32.6335 9.8646 27.5222 10.2389 21.3661C10.5863 15.6518 14.2632 11.555 19.8477 10.2951C25.9054 8.92845 31.1275 13.4284 31.1275 13.4284Z" fill="#043601"/>
</svg>
