<svg width="174" height="82" viewBox="0 0 174 82" fill="none" xmlns="http://www.w3.org/2000/svg">
<path d="M1 17C1 8.16344 8.16344 1 17 1C25.8366 1 33 8.16344 33 17C33 25.8366 25.8366 33 17 33C8.16344 33 1 25.8366 1 17Z" fill="#043601" stroke="white"/>
<path d="M20.8502 15.45H19.4502H18.9502V14.95V13.4V12.9H19.4502H20.5002C20.7752 12.9 21.0002 12.7 21.0002 12.4V9.75C21.0002 9.475 20.8002 9.25 20.5002 9.25H18.6752C16.7002 9.25 15.3252 10.65 15.3252 12.725V14.9V15.4H14.8252H13.1252C12.7752 15.4 12.4502 15.675 12.4502 16.075V17.875C12.4502 18.225 12.7252 18.55 13.1252 18.55H14.7752H15.2752V19.05V24.075C15.2752 24.425 15.5502 24.75 15.9502 24.75H18.3002C18.4502 24.75 18.5752 24.675 18.6752 24.575C18.7752 24.475 18.8502 24.3 18.8502 24.15V19.075V18.575H19.3752H20.5002C20.8252 18.575 21.0752 18.375 21.1252 18.075V18.05V18.025L21.4752 16.3C21.5002 16.125 21.4752 15.925 21.3252 15.725C21.2752 15.6 21.0502 15.475 20.8502 15.45Z" fill="white"/>
<path d="M64 1.5C72.5604 1.5 79.5 8.43959 79.5 17C79.5 25.5604 72.5604 32.5 64 32.5C55.4396 32.5 48.5 25.5604 48.5 17C48.5 8.43959 55.4396 1.5 64 1.5Z" fill="#043601" stroke="white"/>
<path d="M70.635 13.3001C70.7241 13.1962 70.6079 13.0605 70.4761 13.1091C70.1818 13.2176 69.9129 13.2892 69.5151 13.3334C70.0043 13.061 70.2319 12.6717 70.4169 12.1948C70.4615 12.0798 70.3269 11.9754 70.211 12.0304C69.7401 12.2536 69.2321 12.4193 68.6978 12.5171C68.1697 11.9938 67.417 11.6667 66.5843 11.6667C64.9854 11.6667 63.6888 12.8726 63.6888 14.3595C63.6888 14.5706 63.7147 14.7762 63.7635 14.9731C61.465 14.866 59.4155 13.8828 57.9917 12.3752C57.8941 12.2718 57.717 12.2855 57.6562 12.4116C57.4941 12.7478 57.4037 13.1208 57.4037 13.5135C57.4037 14.4476 57.9147 15.2717 58.6916 15.7546C58.3433 15.7441 58.0102 15.6763 57.7032 15.5611C57.5538 15.505 57.3824 15.6036 57.4025 15.7543C57.5567 16.9115 58.4936 17.8663 59.703 18.0919C59.4601 18.1537 59.2043 18.1865 58.9397 18.1865C58.8756 18.1865 58.8119 18.1845 58.7489 18.1806C58.5885 18.1707 58.4582 18.3141 58.527 18.4514C58.9806 19.3569 59.9602 19.989 61.1002 20.0087C60.1093 20.7311 58.8609 21.1615 57.5043 21.1615C57.337 21.1615 57.2653 21.3765 57.4137 21.4495C58.5598 22.0129 59.865 22.3334 61.2519 22.3334C66.5779 22.3334 69.4899 18.2303 69.4899 14.6718C69.4899 14.5553 69.4869 14.4388 69.4817 14.3234C69.9139 14.033 70.3025 13.6877 70.635 13.3001Z" fill="white"/>
<path d="M110.886 1.5C119.383 1.5 126.272 8.38839 126.272 16.8857C126.272 25.3833 119.383 32.2725 110.886 32.2725C102.388 32.2722 95.5 25.3831 95.5 16.8857C95.5002 8.38853 102.389 1.50023 110.886 1.5Z" fill="#043601" stroke="white"/>
<path d="M118.425 13.275C118.25 12.6 117.725 12.075 117.05 11.9C115.85 11.575 111 11.575 111 11.575C111 11.575 106.15 11.575 104.95 11.9C104.275 12.075 103.75 12.6 103.575 13.275C103.25 14.5 103.25 17 103.25 17C103.25 17 103.25 19.525 103.575 20.725C103.75 21.4 104.275 21.925 104.95 22.1C106.15 22.425 111 22.4249 111 22.4249C111 22.4249 115.85 22.425 117.05 22.1C117.725 21.925 118.25 21.4 118.425 20.725C118.75 19.525 118.75 17 118.75 17C118.75 17 118.75 14.5 118.425 13.275ZM109.45 19.325V14.675L113.475 17L109.45 19.325Z" fill="white"/>
<path d="M157.658 1.5C166.156 1.5 173.045 8.38839 173.045 16.8857C173.045 25.3833 166.156 32.2725 157.658 32.2725C149.161 32.2722 142.272 25.3831 142.272 16.8857C142.273 8.38853 149.161 1.50023 157.658 1.5Z" fill="#043601" stroke="white"/>
<path d="M154.627 12.3333C154.626 12.6869 154.486 13.026 154.236 13.2759C153.985 13.5258 153.646 13.6661 153.293 13.6659C152.939 13.6658 152.6 13.5251 152.35 13.2749C152.1 13.0248 151.96 12.6856 151.96 12.3319C151.96 11.9783 152.101 11.6392 152.351 11.3893C152.601 11.1394 152.94 10.9991 153.294 10.9993C153.648 10.9994 153.987 11.1401 154.237 11.3903C154.486 11.6404 154.627 11.9796 154.627 12.3333V12.3333ZM154.667 14.6533H152V22.9999H154.667V14.6533ZM158.88 14.6533H156.227V22.9999H158.853V18.6199C158.853 16.1799 162.033 15.9533 162.033 18.6199V22.9999H164.667V17.7133C164.667 13.5999 159.96 13.7533 158.853 15.7733L158.88 14.6533V14.6533Z" fill="white"/>
<path d="M5 70.1818C5 69.5606 5.15152 68.9943 5.45455 68.483C5.75758 67.9716 6.16477 67.5644 6.67614 67.2614C7.1875 66.9583 7.75379 66.8068 8.375 66.8068C8.91288 66.8068 9.40909 66.9223 9.86364 67.1534C10.322 67.3845 10.7008 67.7008 11 68.1023C11.2992 68.5 11.4848 68.9508 11.5568 69.4545H10.1818C10.1061 69.0644 9.89583 68.7462 9.55114 68.5C9.20644 68.25 8.81439 68.125 8.375 68.125C7.99621 68.125 7.65152 68.2178 7.34091 68.4034C7.0303 68.589 6.7822 68.8371 6.59659 69.1477C6.41098 69.4583 6.31818 69.803 6.31818 70.1818C6.31818 70.5606 6.41098 70.9053 6.59659 71.2159C6.7822 71.5265 7.0303 71.7746 7.34091 71.9602C7.65152 72.1458 7.99621 72.2386 8.375 72.2386C8.81439 72.2386 9.18561 72.1155 9.48864 71.8693C9.79545 71.6193 9.98864 71.2992 10.0682 70.9091H11.4432C11.3712 71.4129 11.1951 71.8655 10.9148 72.267C10.6345 72.6648 10.2746 72.9792 9.83523 73.2102C9.39962 73.4413 8.91288 73.5568 8.375 73.5568C7.75379 73.5568 7.1875 73.4053 6.67614 73.1023C6.16477 72.7992 5.75758 72.392 5.45455 71.8807C5.15152 71.3693 5 70.803 5 70.1818ZM8.31818 76.1818C7.49242 76.1818 6.71591 76.0265 5.98864 75.7159C5.26515 75.4053 4.62689 74.9754 4.07386 74.4261C3.52462 73.8731 3.0928 73.2348 2.77841 72.5114C2.4678 71.7879 2.31439 71.0114 2.31818 70.1818C2.32197 69.3523 2.47917 68.5758 2.78977 67.8523C3.10417 67.1288 3.53598 66.4924 4.08523 65.9432C4.63447 65.3902 5.27083 64.9583 5.99432 64.6477C6.7178 64.3371 7.49242 64.1818 8.31818 64.1818C9.14773 64.1818 9.92424 64.3371 10.6477 64.6477C11.375 64.9583 12.0114 65.3902 12.5568 65.9432C13.1061 66.4924 13.536 67.1288 13.8466 67.8523C14.1572 68.5758 14.3144 69.3523 14.3182 70.1818C14.322 71.0114 14.1686 71.7879 13.858 72.5114C13.5473 73.2348 13.1174 73.8731 12.5682 74.4261C12.0189 74.9754 11.3807 75.4053 10.6534 75.7159C9.92614 76.0265 9.14773 76.1818 8.31818 76.1818ZM8.31818 74.8636C8.96591 74.8636 9.57386 74.7424 10.142 74.5C10.7102 74.2576 11.2083 73.9223 11.6364 73.4943C12.0644 73.0663 12.3996 72.5701 12.642 72.0057C12.8845 71.4375 13.0038 70.8314 13 70.1875C12.9962 69.5398 12.8731 68.9318 12.6307 68.3636C12.3883 67.7955 12.053 67.2973 11.625 66.8693C11.197 66.4413 10.7008 66.1061 10.1364 65.8636C9.57197 65.6212 8.96591 65.5 8.31818 65.5C7.67424 65.5 7.07008 65.6212 6.50568 65.8636C5.94129 66.1061 5.44508 66.4432 5.01705 66.875C4.58902 67.303 4.25189 67.8011 4.00568 68.3693C3.76326 68.9337 3.64015 69.5398 3.63636 70.1875C3.63258 70.8277 3.75189 71.4318 3.99432 72C4.23674 72.5644 4.57197 73.0606 5 73.4886C5.43182 73.9167 5.92992 74.2538 6.49432 74.5C7.0625 74.7424 7.67045 74.8636 8.31818 74.8636ZM21.3452 76V74.9773L25.1861 70.7727C25.6368 70.2803 26.008 69.8523 26.2997 69.4886C26.5914 69.1212 26.8073 68.7765 26.9474 68.4545C27.0914 68.1288 27.1634 67.7879 27.1634 67.4318C27.1634 67.0227 27.0649 66.6686 26.8679 66.3693C26.6747 66.0701 26.4096 65.839 26.0724 65.6761C25.7353 65.5133 25.3565 65.4318 24.9361 65.4318C24.4891 65.4318 24.099 65.5246 23.7656 65.7102C23.4361 65.892 23.1804 66.1477 22.9986 66.4773C22.8205 66.8068 22.7315 67.1932 22.7315 67.6364H21.3906C21.3906 66.9545 21.5478 66.3561 21.8622 65.8409C22.1766 65.3258 22.6046 64.9242 23.1463 64.6364C23.6918 64.3485 24.3035 64.2045 24.9815 64.2045C25.6634 64.2045 26.2675 64.3485 26.794 64.6364C27.3205 64.9242 27.7334 65.3125 28.0327 65.8011C28.3319 66.2898 28.4815 66.8333 28.4815 67.4318C28.4815 67.8598 28.4039 68.2784 28.2486 68.6875C28.0971 69.0928 27.8319 69.5455 27.4531 70.0455C27.0781 70.5417 26.5573 71.1477 25.8906 71.8636L23.277 74.6591V74.75H28.6861V76H21.3452ZM34.8281 76.1591C33.9721 76.1591 33.2429 75.9261 32.6406 75.4602C32.0384 74.9905 31.5781 74.3106 31.2599 73.4205C30.9418 72.5265 30.7827 71.447 30.7827 70.1818C30.7827 68.9242 30.9418 67.8504 31.2599 66.9602C31.5819 66.0663 32.044 65.3845 32.6463 64.9148C33.2524 64.4413 33.9796 64.2045 34.8281 64.2045C35.6766 64.2045 36.402 64.4413 37.0043 64.9148C37.6103 65.3845 38.0724 66.0663 38.3906 66.9602C38.7126 67.8504 38.8736 68.9242 38.8736 70.1818C38.8736 71.447 38.7145 72.5265 38.3963 73.4205C38.0781 74.3106 37.6179 74.9905 37.0156 75.4602C36.4134 75.9261 35.6842 76.1591 34.8281 76.1591ZM34.8281 74.9091C35.6766 74.9091 36.3357 74.5 36.8054 73.6818C37.2751 72.8636 37.5099 71.697 37.5099 70.1818C37.5099 69.1742 37.402 68.3163 37.1861 67.608C36.974 66.8996 36.6671 66.3598 36.2656 65.9886C35.8679 65.6174 35.3887 65.4318 34.8281 65.4318C33.9872 65.4318 33.33 65.8466 32.8565 66.6761C32.383 67.5019 32.1463 68.6705 32.1463 70.1818C32.1463 71.1894 32.2524 72.0455 32.4645 72.75C32.6766 73.4545 32.9815 73.9905 33.3793 74.358C33.7808 74.7254 34.2637 74.9091 34.8281 74.9091ZM41.0327 76V74.9773L44.8736 70.7727C45.3243 70.2803 45.6955 69.8523 45.9872 69.4886C46.2789 69.1212 46.4948 68.7765 46.6349 68.4545C46.7789 68.1288 46.8509 67.7879 46.8509 67.4318C46.8509 67.0227 46.7524 66.6686 46.5554 66.3693C46.3622 66.0701 46.0971 65.839 45.7599 65.6761C45.4228 65.5133 45.044 65.4318 44.6236 65.4318C44.1766 65.4318 43.7865 65.5246 43.4531 65.7102C43.1236 65.892 42.8679 66.1477 42.6861 66.4773C42.508 66.8068 42.419 67.1932 42.419 67.6364H41.0781C41.0781 66.9545 41.2353 66.3561 41.5497 65.8409C41.8641 65.3258 42.2921 64.9242 42.8338 64.6364C43.3793 64.3485 43.991 64.2045 44.669 64.2045C45.3509 64.2045 45.955 64.3485 46.4815 64.6364C47.008 64.9242 47.4209 65.3125 47.7202 65.8011C48.0194 66.2898 48.169 66.8333 48.169 67.4318C48.169 67.8598 48.0914 68.2784 47.9361 68.6875C47.7846 69.0928 47.5194 69.5455 47.1406 70.0455C46.7656 70.5417 46.2448 71.1477 45.5781 71.8636L42.9645 74.6591V74.75H48.3736V76H41.0327ZM54.3565 76.1591C53.6899 76.1591 53.0895 76.0265 52.5554 75.7614C52.0213 75.4962 51.5933 75.1326 51.2713 74.6705C50.9493 74.2083 50.7732 73.6818 50.7429 73.0909H52.1065C52.1596 73.6174 52.3982 74.053 52.8224 74.3977C53.2505 74.7386 53.7618 74.9091 54.3565 74.9091C54.8338 74.9091 55.258 74.7973 55.6293 74.5739C56.0043 74.3504 56.2978 74.0436 56.5099 73.6534C56.7259 73.2595 56.8338 72.8144 56.8338 72.3182C56.8338 71.8106 56.7221 71.358 56.4986 70.9602C56.2789 70.5587 55.9759 70.2424 55.5895 70.0114C55.2031 69.7803 54.7618 69.6629 54.2656 69.6591C53.9096 69.6553 53.544 69.7102 53.169 69.8239C52.794 69.9337 52.4853 70.0758 52.2429 70.25L50.9247 70.0909L51.6293 64.3636H57.6747V65.6136H52.8111L52.402 69.0455H52.4702C52.7088 68.8561 53.008 68.6989 53.3679 68.5739C53.7277 68.4489 54.1027 68.3864 54.4929 68.3864C55.205 68.3864 55.8395 68.5568 56.3963 68.8977C56.9569 69.2348 57.3963 69.697 57.7145 70.2841C58.0365 70.8712 58.1974 71.5417 58.1974 72.2955C58.1974 73.0379 58.0308 73.7008 57.6974 74.2841C57.3679 74.8636 56.9134 75.322 56.3338 75.6591C55.7543 75.9924 55.0952 76.1591 54.3565 76.1591ZM67.2727 76L64.0909 64.3636H65.5227L67.9545 73.8409H68.0682L70.5455 64.3636H72.1364L74.6136 73.8409H74.7273L77.1591 64.3636H78.5909L75.4091 76H73.9545L71.3864 66.7273H71.2955L68.7273 76H67.2727ZM80.3466 76V64.3636H87.3693V65.6136H81.7557V69.5455H87.0057V70.7955H81.7557V74.75H87.4602V76H80.3466ZM89.9091 76V64.3636H93.9773C94.7879 64.3636 95.4564 64.5038 95.983 64.7841C96.5095 65.0606 96.9015 65.4337 97.1591 65.9034C97.4167 66.3693 97.5455 66.8864 97.5455 67.4545C97.5455 67.9545 97.4564 68.3674 97.2784 68.6932C97.1042 69.0189 96.8731 69.2765 96.5852 69.4659C96.3011 69.6553 95.9924 69.7955 95.6591 69.8864V70C96.0152 70.0227 96.3731 70.1477 96.733 70.375C97.0928 70.6023 97.3939 70.928 97.6364 71.3523C97.8788 71.7765 98 72.2955 98 72.9091C98 73.4924 97.8674 74.017 97.6023 74.483C97.3371 74.9489 96.9186 75.3182 96.3466 75.5909C95.7746 75.8636 95.0303 76 94.1136 76H89.9091ZM91.3182 74.75H94.1136C95.0341 74.75 95.6875 74.572 96.0739 74.2159C96.464 73.8561 96.6591 73.4205 96.6591 72.9091C96.6591 72.5152 96.5587 72.1515 96.358 71.8182C96.1572 71.4811 95.8712 71.2121 95.5 71.0114C95.1288 70.8068 94.6894 70.7045 94.1818 70.7045H91.3182V74.75ZM91.3182 69.4773H93.9318C94.3561 69.4773 94.7386 69.3939 95.0795 69.2273C95.4242 69.0606 95.697 68.8258 95.8977 68.5227C96.1023 68.2197 96.2045 67.8636 96.2045 67.4545C96.2045 66.9432 96.0265 66.5095 95.6705 66.1534C95.3144 65.7936 94.75 65.6136 93.9773 65.6136H91.3182V69.4773ZM100.315 76V64.3636H104.247C105.16 64.3636 105.906 64.5284 106.486 64.858C107.069 65.1837 107.501 65.625 107.781 66.1818C108.062 66.7386 108.202 67.3598 108.202 68.0455C108.202 68.7311 108.062 69.3542 107.781 69.9148C107.505 70.4754 107.077 70.9223 106.497 71.2557C105.918 71.5852 105.175 71.75 104.27 71.75H101.452V70.5H104.224C104.849 70.5 105.351 70.392 105.73 70.1761C106.109 69.9602 106.384 69.6686 106.554 69.3011C106.728 68.9299 106.815 68.5114 106.815 68.0455C106.815 67.5795 106.728 67.1629 106.554 66.7955C106.384 66.428 106.107 66.1402 105.724 65.9318C105.342 65.7197 104.834 65.6136 104.202 65.6136H101.724V76H100.315ZM111.881 64.3636V76H110.472V64.3636H111.881ZM116.115 64.3636V76H114.706V64.3636H116.115ZM119.736 76.0909C119.455 76.0909 119.215 75.9905 119.014 75.7898C118.813 75.589 118.713 75.3485 118.713 75.0682C118.713 74.7879 118.813 74.5473 119.014 74.3466C119.215 74.1458 119.455 74.0455 119.736 74.0455C120.016 74.0455 120.257 74.1458 120.457 74.3466C120.658 74.5473 120.759 74.7879 120.759 75.0682C120.759 75.2538 120.711 75.4242 120.616 75.5795C120.526 75.7348 120.402 75.8598 120.247 75.9545C120.096 76.0455 119.925 76.0909 119.736 76.0909Z" fill="white"/>
</svg>
