<svg width="65" height="68" viewBox="0 0 65 68" fill="none" xmlns="http://www.w3.org/2000/svg">
<g opacity="0.2">
<path d="M38.3529 47.8045C36.6989 48.0612 30.2036 41.5806 28.9962 40.3447C27.7889 39.1089 29.8564 36.5841 31.8425 36.5925C33.8285 36.6009 35.5459 36.4474 36.4514 35.0414C37.3569 33.6354 37.055 32.6617 35.5459 31.7774C34.0368 30.893 31.0185 29.2275 32.6031 27.0571C34.1877 24.8867 37.7975 26.5968 40.0311 26.7781C42.2646 26.9595 44.806 26.9567 45.2315 25.2828C45.6571 23.609 43.3572 23.1626 39.8771 22.0076C36.3971 20.8527 35.3286 16.0152 35.4765 14.7292C35.6244 13.4431 36.9856 10.963 38.9626 11.4624C40.9396 11.9617 41.5794 14.2521 43.0191 13.909C44.4589 13.5658 41.3591 11.8334 41.7334 10.9602C42.1076 10.087 43.5443 9.64901 44.6641 10.7203C45.7839 11.7915 47.954 13.298 49.4933 12.3941C51.0327 11.4902 50.3626 9.88335 49.0316 9.07153C47.7005 8.25971 45.7446 7.43952 45.808 6.12833C45.8714 4.81715 48.9199 4.07786 48.3464 2.46259C47.7729 0.847315 45.971 0.981224 45.971 0.981224C45.971 0.981224 48.0566 0.914271 48.9199 2.08039C49.7831 3.24651 46.7588 5.0459 47.8333 6.14785C48.9078 7.24981 53.568 8.49404 54.6546 10.0256C55.7412 11.5572 56.9938 13.8588 55.213 14.9021C53.4322 15.9455 49.9672 15.0723 48.615 14.6566C47.2628 14.2409 46.2004 13.4459 45.6692 13.4738C45.138 13.5017 45.6149 14.2298 46.6773 14.9217C47.7397 15.6135 49.8103 17.8593 47.5496 18.4953C45.2889 19.1314 42.9346 16.735 41.9205 15.9845C40.9064 15.2341 40.4114 20.2194 43.3662 21.5166C46.3211 22.8139 48.4128 21.7342 50.263 22.5823C52.1132 23.4304 53.9121 26.4517 51.4975 28.6305C49.0829 30.8093 41.4889 29.3503 40.5743 29.8999C39.6598 30.4495 39.5843 31.3143 40.4506 32.0061C41.3168 32.698 46.3936 34.6536 46.7497 37.8284C47.1059 41.0031 45.2014 46.75 38.3529 47.8045Z" fill="#825F24"/>
<path d="M29.9022 40.3476C29.3727 39.9366 29.0292 39.3571 28.9392 38.7234C28.8493 38.0898 29.0195 37.448 29.4162 36.9246C29.5936 36.6883 29.8487 36.5112 30.1436 36.4196C31.5743 36.0877 33.6267 36.6512 34.8431 35.8338C35.5101 35.3567 35.981 34.7402 35.987 33.9674C36.0081 33.0803 35.0815 32.1987 34.0402 31.6994C33.186 31.3116 32.3621 30.8624 31.8248 30.2264C31.3286 29.6964 31.0368 29.0291 30.9953 28.3293C30.9537 27.6295 31.1648 26.9367 31.5954 26.3598C31.8174 26.0585 32.1133 25.8099 32.4589 25.6344C32.8046 25.4589 33.1903 25.3614 33.5845 25.3499C34.5601 25.3149 35.537 25.3719 36.5001 25.52C37.5263 25.6121 38.6974 25.799 39.5184 25.3387C40.3394 24.8784 40.122 23.8378 39.3886 23.185C39.0215 22.8504 38.5986 22.5725 38.136 22.362C37.6696 22.1893 37.2227 21.9743 36.8019 21.7204C35.2294 20.6045 34.828 18.9502 34.7223 17.5525C34.7706 18.9753 35.0906 20.6212 36.6782 21.8208C37.1001 22.0911 37.55 22.3219 38.0213 22.5099C38.4439 22.7139 38.8281 22.9795 39.1592 23.2966C40.2247 24.3372 39.6693 25.4196 37.9821 25.2969C36.4729 25.2355 34.9789 24.817 33.4275 24.9035C32.9505 24.9092 32.4811 25.0152 32.0549 25.2133C31.6287 25.4115 31.2569 25.6967 30.9676 26.0473C29.4343 27.8997 30.1466 30.6895 33.2494 32.1206C34.6378 32.765 35.3381 33.7052 34.5262 34.6314C34.3716 34.8211 34.1863 34.9876 33.9768 35.1252C33.5581 35.3243 33.0883 35.4131 32.6186 35.3818C31.3358 35.3818 29.6909 35.1252 28.6948 35.8087C27.3668 36.7628 27.0408 38.3697 27.7622 39.8371C28.0098 40.3054 28.3544 40.7243 28.7763 41.0702L29.9022 40.356V40.3476Z" fill="#825F24"/>
<path d="M39.6028 48.8705C44.3113 47.5007 48.6576 44.8672 49.3095 40.8946C49.5541 39.1355 49.1272 37.3527 48.1022 35.8535C47.1364 34.5786 45.6152 33.5659 44.0909 32.6508C43.7322 32.4476 43.3846 32.2278 43.0496 31.9925C42.6271 31.68 42.7478 31.0607 43.2881 31.016C46.5086 30.7817 51.4223 31.3731 52.7534 28.8679C51.2442 31.2727 46.3758 30.4637 43.1251 30.5753C42.0989 30.631 41.8514 31.6716 42.5908 32.2491C42.8927 32.5002 43.3575 32.7792 43.6986 33.0023C44.7584 33.6445 45.7383 34.393 46.6202 35.2342C47.1362 35.7246 47.5342 36.3102 47.7883 36.9526C48.8266 39.4634 48.3014 41.9742 46.4331 43.8182C44.5648 45.6623 41.8514 46.9511 38.8633 47.7239L39.6118 48.8705H39.6028Z" fill="#825F24"/>
</g>
<path d="M5.9126 65.3756C24.5992 65.1532 45.5693 65.1498 64.2596 65.3756C45.5693 65.5979 24.5992 65.5979 5.9126 65.3756Z" fill="#263238"/>
<path d="M17.1603 30.9622C16.842 31.8243 16.1462 32.5769 15.5651 33.2987C15.0988 33.8768 14.6362 34.602 13.8663 34.8586C13.437 35.0022 12.9448 35.0604 12.7856 34.602C12.6118 33.9388 12.6118 33.2469 12.7856 32.5837C12.8189 32.0501 12.8671 31.5198 12.9411 30.9964C13.0188 30.3875 13.4037 30.1173 14.0514 29.9941C14.4988 29.9229 14.952 29.8874 15.406 29.8881C15.8094 29.8881 16.5792 29.7684 16.9567 29.9052C17.4341 30.0797 17.2898 30.5996 17.1603 30.9622Z" fill="#263238"/>
<path d="M31.2981 61.0416C31.1057 61.8866 30.5098 62.7521 30.0398 63.4841C29.6044 64.1853 29.1094 64.8533 28.5593 65.4819C28.019 66.0771 27.449 66.2105 26.6496 66.2413C25.6022 66.2824 24.5437 66.296 23.5 66.2653C21.4126 66.2071 19.3993 65.7898 17.3452 65.5058C15.0249 65.1741 12.6647 65.1568 10.3391 65.4545C8.37384 65.7042 6.40118 66.1387 4.41742 65.9061C2.97772 65.7487 1.33816 65.2458 0.423997 64.1272C-0.6308 62.8376 0.53873 61.6676 1.16421 60.484C1.27977 60.2555 1.37507 60.0187 1.44919 59.7759L1.52321 59.5023C1.8563 58.0416 1.52321 56.444 2.13758 55.0073C2.50768 54.1213 3.00362 53.2798 3.45515 52.4314C3.90668 51.583 4.59877 50.6081 4.80233 49.6263C5.00589 48.6445 4.6839 47.543 4.82084 46.5065C4.92928 45.7118 5.15983 44.9354 5.50553 44.2009C6.27165 42.511 7.44488 41.0092 8.54779 39.4972C9.288 38.471 10.0282 37.4447 10.7684 36.4185C11.0897 35.6847 11.5567 35.0129 12.1452 34.4378C11.393 34.0623 10.7158 33.5706 10.1429 32.9839C9.69881 32.4605 9.91718 32.0193 10.2318 31.4822C10.5464 30.9451 11.9491 28.3761 12.7411 29.7923C12.9024 30.1559 13.0263 30.5327 13.1112 30.9178C13.2444 31.3351 13.348 32.0603 13.6552 32.3887C14.2252 33.0181 14.4695 32.2245 14.9136 32.0808C15.2023 31.9885 15.465 32.1356 15.7426 32.2314C16.1793 32.3784 17.1046 32.4742 17.149 33.0216C17.1331 33.2474 17.0568 33.466 16.927 33.6578C16.79 33.9041 16.3348 34.2804 16.2127 34.5952C16.4894 34.8345 16.7375 35.1006 16.9529 35.3888C17.6228 36.3056 18.041 37.3523 18.8034 38.2212C19.5139 38.9772 20.2981 39.6711 21.1461 40.2943C22.5266 41.3958 23.9885 42.706 24.2291 44.4677C24.3253 45.1518 24.1218 45.925 24.2661 46.6125C24.2953 46.758 24.3413 46.9002 24.4031 47.0367C24.4364 47.0983 24.4697 47.1599 24.5104 47.2215C24.9434 47.8748 25.7799 48.2203 26.4164 48.6856C27.6827 49.6157 28.6723 50.8282 29.2922 52.209C29.9879 53.7518 30.0065 55.2125 29.9583 56.8511C29.946 57.3222 30.0485 57.7899 30.2581 58.2194C30.3247 58.3597 30.3988 58.4965 30.4802 58.6334C30.6319 58.8934 30.8022 59.1568 30.9761 59.4441C31.2987 59.9196 31.4138 60.4907 31.2981 61.0416Z" fill="#37474F"/>
<path d="M11.6837 62.4062C9.46311 62.0642 7.24249 62.2626 5.02186 61.9752C3.4082 61.7665 2.3497 60.8908 1.43555 59.7756L1.50957 59.502C2.03963 60.0042 2.61678 60.4621 3.23425 60.8703C4.01225 61.3191 4.88819 61.603 5.79908 61.7015C7.75323 61.9752 9.7814 61.835 11.7208 62.331C11.7315 62.3355 11.74 62.3438 11.7441 62.3541C11.7483 62.3644 11.7479 62.3757 11.743 62.3857C11.738 62.3957 11.7291 62.4035 11.7179 62.4073C11.7068 62.4112 11.6945 62.4108 11.6837 62.4062Z" fill="#263238"/>
<path d="M27.3308 60.2821C25.7245 61.0621 24.3699 62.232 22.7933 63.0872C21.9532 63.549 21.1759 63.5525 20.2322 63.4943C19.2884 63.4361 18.2743 63.3917 17.2935 63.3301C17.2232 63.3301 17.2269 63.4259 17.2935 63.4327C18.3743 63.5525 19.4476 63.703 20.5246 63.8193C21.2572 63.9396 22.0121 63.8475 22.686 63.5559C23.5278 63.1063 24.3309 62.5974 25.088 62.0336C25.9052 61.5363 26.6899 60.9949 27.4381 60.4121C27.5158 60.3471 27.4196 60.2411 27.3308 60.2821Z" fill="#263238"/>
<path d="M30.4291 58.6502C29.6256 59.2663 28.9049 59.9692 28.2825 60.7438C27.509 61.6811 26.7428 62.7621 25.5585 63.2752C25.503 63.2992 25.4512 63.2239 25.5067 63.1965C26.3394 62.8237 26.8317 62.054 27.3572 61.3767C27.7495 60.8567 28.1344 60.3504 28.5527 59.8407C29.0356 59.2456 29.5948 58.7069 30.2181 58.2363C30.2736 58.3766 30.3477 58.5134 30.4291 58.6502Z" fill="#263238"/>
<path d="M24.3518 47.0467C24.0939 47.5606 23.7762 48.047 23.4043 48.4972C22.6167 49.3761 21.5275 49.9797 20.3176 50.2076C20.3117 50.2076 20.3061 50.2054 20.3019 50.2016C20.2978 50.1977 20.2954 50.1925 20.2954 50.1871C20.2954 50.1816 20.2978 50.1764 20.3019 50.1726C20.3061 50.1687 20.3117 50.1665 20.3176 50.1665C21.6903 49.7436 22.8502 48.8745 23.5819 47.7207C23.8077 47.3546 24.0076 46.9783 24.2259 46.6191C24.2513 46.7654 24.2935 46.9088 24.3518 47.0467Z" fill="#263238"/>
<path d="M17.4494 38.2281C17.0792 37.667 17.0089 36.9658 16.6832 36.3705C16.3872 35.8514 16.0134 35.3735 15.5729 34.9509C15.758 34.879 15.943 34.7969 16.1059 34.7251C16.1762 34.6943 16.1059 34.602 16.0578 34.6157C15.5655 34.708 15.2731 34.8791 14.7291 34.8448C14.5218 34.8448 14.3331 34.773 14.1184 34.7696C13.4775 34.7396 12.8427 34.6397 12.2272 34.472C12.2126 34.4686 12.1971 34.4701 12.1837 34.4764C12.1702 34.4826 12.1596 34.493 12.1538 34.5059C12.148 34.5187 12.1473 34.533 12.152 34.5463C12.1566 34.5595 12.1662 34.5708 12.1791 34.578L12.4233 34.7046C11.9357 35.2222 11.578 35.8332 11.3759 36.4937C11.3759 36.5176 11.4092 36.5347 11.4203 36.5108C11.6035 36.1276 11.8332 35.765 12.105 35.4298C12.2992 35.2391 12.4569 35.0193 12.5714 34.7798C12.6602 34.8209 12.7527 34.8654 12.8453 34.8996C12.7171 35.0704 12.6126 35.2554 12.5344 35.4503C12.2295 35.8541 11.9738 36.2878 11.7719 36.7434C11.4018 37.5986 11.45 38.553 11.0317 39.3843C11.0317 39.4082 11.0539 39.4288 11.065 39.4048C11.4685 38.6864 11.5462 37.8723 11.9126 37.1402C12.279 36.4082 12.7749 35.7377 13.1265 35.0022C13.3839 35.0752 13.6542 35.1008 13.9223 35.0775C14.0825 35.0689 14.2431 35.0689 14.4034 35.0775C14.1147 35.8916 14.5218 36.6545 14.6773 37.472C14.6759 37.5705 14.7001 37.6678 14.7476 37.756C14.7713 37.7985 14.8122 37.8306 14.8615 37.8453C14.9107 37.86 14.9642 37.8562 15.0104 37.8346C15.1251 37.7697 15.1399 37.5781 15.1399 37.4686C15.1403 37.3143 15.0983 37.1625 15.0178 37.0273C15.0178 37.0102 14.9771 37.0273 14.9808 37.0273C15.04 37.2121 15.0844 37.6534 14.9067 37.6157C14.7291 37.5781 14.6995 36.7229 14.6069 36.4082C14.5027 36.1222 14.4661 35.8189 14.4996 35.5187C14.4996 35.3614 14.5366 35.2211 14.5403 35.0672C14.7514 35.0821 14.9635 35.0764 15.1732 35.0501C15.2488 35.0395 15.3232 35.0223 15.3953 34.9988C15.8094 35.4991 16.1901 36.0223 16.5352 36.5655C16.8461 37.1231 16.9904 37.7286 17.4049 38.2383C17.4271 38.2725 17.4679 38.252 17.4494 38.2281Z" fill="#263238"/>
<path d="M17.634 52.1747C15.3208 51.8873 13.1113 52.9033 10.7982 52.7357C9.62712 52.6394 8.52048 52.1981 7.64117 51.4768C6.87506 50.9089 6.18666 50.235 5.29841 49.8348C5.29331 49.8321 5.28768 49.8304 5.28185 49.8297C5.27602 49.829 5.2701 49.8294 5.26443 49.8308C5.25876 49.8322 5.25345 49.8347 5.2488 49.838C5.24415 49.8413 5.24026 49.8455 5.23734 49.8502C5.23443 49.8549 5.23254 49.8601 5.2318 49.8655C5.23106 49.8709 5.23148 49.8764 5.23302 49.8816C5.23457 49.8868 5.23722 49.8918 5.24082 49.8961C5.24441 49.9003 5.24889 49.9039 5.254 49.9066C7.0268 51.0355 7.94095 52.9854 10.2726 53.2317C12.7486 53.5088 15.1136 52.2054 17.6081 52.3457C17.7117 52.3525 17.7376 52.1883 17.634 52.1747Z" fill="#263238"/>
<path d="M20.995 53.4028C19.3758 53.2779 17.7469 53.3123 16.1355 53.5055C14.5848 53.6628 12.9526 54.2136 11.4056 53.827C11.3686 53.827 11.3575 53.8681 11.4056 53.8817C12.7861 54.412 14.211 54.152 15.6396 53.9536C17.4309 53.7039 19.2037 53.6389 21.0098 53.5191C21.0265 53.5173 21.0417 53.5095 21.0521 53.4973C21.0625 53.4851 21.0673 53.4696 21.0653 53.4541C21.0634 53.4387 21.0548 53.4246 21.0417 53.415C21.0285 53.4054 21.0117 53.401 20.995 53.4028Z" fill="#263238"/>
<path d="M27.1094 44.8097C26.78 45.0628 26.1212 45.6067 26.1582 46.2054C26.1953 46.804 27.1538 47.2932 27.0576 47.5498C26.9614 47.8064 22.3721 55.1748 22.6163 57.4052C22.8606 59.6356 24.9036 61.2537 24.9369 61.8523C24.9702 62.451 25.5106 64.0895 26.7393 64.8797C27.9681 65.67 34.0082 67.0109 34.704 67.0212C35.3998 67.0314 41.8174 65.5536 42.9314 65.3108C44.0454 65.0679 46.9174 62.7657 47.1543 62.427C47.3911 62.0883 47.3985 59.3927 47.4948 59.2662C47.591 59.1396 48.6273 58.1715 48.9197 57.3642C49.2121 56.5569 47.5725 52.7597 46.8434 52.2329C46.1143 51.7061 44.5598 49.2192 44.5228 48.8976C44.4858 48.576 44.4969 47.8166 44.4969 47.8166C44.9441 47.6124 45.2954 47.2646 45.4851 46.8383C45.7072 46.1986 44.0676 44.7276 42.8648 44.194C41.6619 43.6603 40.4739 43.739 38.6493 42.9043C36.8247 42.0696 33.3901 40.0582 32.3575 39.8255C31.3249 39.5929 27.3981 39.5348 26.8281 40.1129C26.2582 40.691 25.3144 42.9522 25.4143 43.3079C25.5143 43.6637 27.1094 44.8097 27.1094 44.8097Z" fill="#455A64"/>
<path d="M44.13 46.2942C43.7112 46.5362 43.2286 46.6676 42.7347 46.6739C41.8653 46.7031 40.9953 46.6341 40.144 46.4686L40.0219 46.4481L39.9404 46.431C39.7628 46.4002 39.5703 46.3694 39.4038 46.3455C38.8449 46.2599 38.2713 46.1984 37.705 46.1402L37.098 46.0752L36.5096 46.0102L36.2283 45.9726C35.9248 45.935 35.6287 45.8939 35.3326 45.8392C35.1809 45.8118 35.0291 45.7845 34.8811 45.7502C34.551 45.6827 34.2248 45.5993 33.904 45.5005C33.5339 45.3842 33.1638 45.2611 32.7937 45.1208L32.357 44.9532C31.9869 44.8027 31.6168 44.6385 31.2467 44.464C30.5529 44.1362 29.8916 43.7527 29.2703 43.318C28.914 43.0936 28.6198 42.7948 28.4117 42.4457C28.3021 42.2328 28.2598 41.9957 28.2895 41.7616C28.3784 41.0192 28.8558 40.6087 29.8551 40.5027C30.7076 40.3648 31.5822 40.3975 32.4199 40.5985C33.3082 40.8653 36.7168 42.5347 37.6384 42.9931C38.7487 43.5472 39.7998 43.6772 40.9952 43.9817C41.1396 44.0193 41.2913 44.0672 41.4542 44.1219C42.3452 44.3971 43.1557 44.8583 43.8228 45.4697C43.9975 45.6417 44.1378 45.8409 44.2373 46.0581C44.251 46.1029 44.2479 46.1506 44.2284 46.1935C44.2089 46.2364 44.1742 46.2719 44.13 46.2942Z" fill="#263238"/>
<path d="M40.1507 46.4688L40.0286 46.4482L39.9472 46.4311C39.7695 46.4004 39.5771 46.3696 39.4105 46.3456C38.8516 46.2601 38.278 46.1985 37.7117 46.1404L37.1048 46.0754L36.5163 46.0104L36.235 45.9727C35.9315 45.9351 35.6354 45.8941 35.3394 45.8393C35.4134 45.7949 35.5133 45.7401 35.6317 45.6786C35.8464 45.5657 36.1166 45.4391 36.3719 45.316H36.3979L36.5903 45.2304C36.8531 45.1175 37.1048 45.0149 37.2861 44.9568C37.3517 44.9304 37.4199 44.9098 37.4897 44.8952C37.5339 44.8894 37.5787 44.8894 37.6229 44.8952C38.2003 44.9123 39.8435 45.3502 39.9472 45.4801C40.1277 45.7811 40.1991 46.1276 40.1507 46.4688Z" fill="#FFC727"/>
<path d="M40.0214 46.4482L39.94 46.4311C39.7623 46.4003 39.5699 46.3695 39.4033 46.3455C39.5699 45.9179 39.7734 45.5998 39.8919 45.6203C40.0103 45.6408 40.0547 46 40.0214 46.4482Z" fill="white"/>
<path d="M36.7099 45.5896C36.8587 45.7375 36.989 45.9005 37.0985 46.0753L36.51 46.0103C36.4292 45.9454 36.3381 45.8924 36.2399 45.853C36.0449 45.7685 35.8381 45.7098 35.6255 45.6785C35.8401 45.5656 36.1103 45.4391 36.3657 45.3159C36.4889 45.3977 36.604 45.4892 36.7099 45.5896Z" fill="white"/>
<path d="M37.7054 46.1403L37.0985 46.0753L36.51 46.0103L36.2287 45.9727C35.9252 45.9351 35.6291 45.894 35.3331 45.8393C35.1813 45.8119 35.0296 45.7846 34.8815 45.7504C34.5514 45.6828 34.2253 45.5994 33.9045 45.5006C33.5344 45.3843 33.1642 45.2612 32.7941 45.1209L32.3574 44.9533C31.9873 44.8028 31.6172 44.6386 31.2471 44.4641C30.5533 44.1363 29.892 43.7528 29.2708 43.3181C28.9144 43.0937 28.6203 42.7949 28.4121 42.4458C28.608 42.3694 28.8176 42.3276 29.0302 42.3227C29.2893 42.3227 29.7001 42.4629 29.8925 42.2782C29.9702 42.2029 29.9962 41.9772 30.048 41.878C30.1771 41.6081 30.4166 41.3965 30.7142 41.2896C31.3359 41.0775 31.8948 41.3375 32.4166 41.6317L32.5499 41.7103C32.709 41.8027 32.8645 41.8985 33.0162 41.9772C33.1435 42.0425 33.279 42.093 33.4196 42.1277C33.6091 42.1747 33.8021 42.209 33.997 42.2303H34.0377C34.6706 42.3056 35.3368 42.3432 35.7254 42.7947C35.9215 43.0496 36.0037 43.3645 35.9548 43.6739C35.9548 44.0605 35.8623 44.4196 36.1029 44.7686C36.2139 44.9191 36.3545 45.0491 36.5174 45.1517L36.6025 45.2099L36.8653 45.3775C37.2017 45.5726 37.4884 45.8329 37.7054 46.1403Z" fill="#EBEBEB"/>
<path d="M35.51 44.9017C35.4035 45.2393 35.183 45.5366 34.8808 45.7501C34.5507 45.6825 34.2245 45.5992 33.9037 45.5004C33.5336 45.3841 33.1635 45.2609 32.7934 45.1207L32.3567 44.9531C31.9866 44.8025 31.6165 44.6383 31.2464 44.4639C31.0502 43.9268 30.8763 42.4114 30.954 42.2917C31.3372 41.9042 31.8677 41.6688 32.4344 41.6348C33.1746 41.5322 33.8741 41.6075 33.9408 41.7101C33.9933 41.8411 34.0269 41.978 34.0407 42.1172C34.0407 42.1548 34.0407 42.1993 34.0407 42.2403C34.1221 42.7706 34.1961 43.506 34.2442 43.5642L34.2998 43.6155C34.544 43.8584 35.5581 44.7546 35.51 44.9017Z" fill="#FFC727"/>
<path d="M31.1286 42.2884C31.1545 42.415 31.8281 42.4834 32.5017 42.3773C33.1753 42.2713 33.9155 41.9874 33.7934 41.7582C33.7194 41.6247 32.9496 41.6179 32.2797 41.7582C31.6098 41.8984 31.1064 42.1755 31.1286 42.2884Z" fill="white"/>
<path d="M34.296 43.6158L34.259 43.65C33.763 44.057 33.1894 44.3341 32.8748 44.9157C32.8406 44.9812 32.8146 45.05 32.7971 45.1209L32.3604 44.9533C32.6453 44.3957 33.1561 44.0194 33.504 43.496C33.7549 43.1087 33.922 42.68 33.9962 42.2337L34.0184 42.1174C34.0184 42.1551 34.0184 42.1995 34.0184 42.2406C34.0998 42.7708 34.1739 43.5063 34.222 43.5644L34.296 43.6158Z" fill="white"/>
<path opacity="0.8" d="M43.8897 45.4597H43.8194L43.6787 45.487C43.4114 45.9088 43.0949 46.3023 42.735 46.6604C41.8656 46.6896 40.9956 46.6207 40.1442 46.4551L40.0221 46.4346L39.9407 46.4175C39.763 46.3867 39.5706 46.3559 39.404 46.332C38.8452 46.2465 38.2715 46.1849 37.7052 46.1267L37.0983 46.0617L36.5098 45.9968L36.2285 45.9591V45.8394C36.2467 45.6568 36.2993 45.4785 36.384 45.3126V45.2921C36.4105 45.2388 36.4468 45.1902 36.4913 45.1484C36.5338 45.1003 36.5924 45.0666 36.6578 45.0526L37.2722 44.9329L37.609 44.8645L39.8296 44.4266C39.849 44.4839 39.8777 44.5381 39.9148 44.5874C39.9204 44.5961 39.9288 44.603 39.9389 44.607C39.9491 44.611 39.9603 44.6119 39.971 44.6096C39.9817 44.6073 39.9914 44.602 39.9985 44.5943C40.0057 44.5866 40.0101 44.577 40.011 44.5668C40.0255 44.5086 40.0318 44.4487 40.0295 44.389L40.2108 44.3479C40.2312 44.4059 40.2598 44.4611 40.296 44.5121C40.303 44.5191 40.3119 44.5243 40.3218 44.5272C40.3317 44.5301 40.3422 44.5305 40.3523 44.5284C40.3624 44.5263 40.3718 44.5218 40.3794 44.5154C40.3871 44.5089 40.3928 44.5007 40.3959 44.4916C40.4023 44.4313 40.4023 44.3706 40.3959 44.3103L40.5809 44.2726C40.5987 44.3305 40.6275 44.385 40.6661 44.4334C40.6714 44.4421 40.6796 44.449 40.6894 44.4531C40.6992 44.4573 40.7102 44.4585 40.7208 44.4566C40.7314 44.4547 40.7411 44.4498 40.7485 44.4426C40.756 44.4354 40.7608 44.4262 40.7623 44.4163C40.7769 44.3569 40.7831 44.2959 40.7808 44.235L40.9659 44.1974C40.9867 44.2541 41.0153 44.3081 41.051 44.3582C41.0564 44.3668 41.0645 44.3737 41.0743 44.3779C41.0841 44.382 41.0951 44.3832 41.1057 44.3813C41.1163 44.3795 41.126 44.3746 41.1334 44.3673C41.1409 44.3601 41.1457 44.3509 41.1472 44.3411C41.1519 44.2796 41.1519 44.2178 41.1472 44.1563L41.3915 44.1119L41.9244 44.0024C42.2094 43.9477 43.3715 44.6866 43.4419 44.731L43.6565 44.69L43.7009 44.8918L43.8897 45.4597Z" fill="#EBEBEB"/>
<path d="M44.4151 45.3818L44.2285 44.5756C44.2066 44.4814 44.1063 44.4214 44.0044 44.4415L43.8524 44.4716C43.7505 44.4918 43.6855 44.5845 43.7073 44.6787L43.894 45.4849C43.9158 45.5791 44.0161 45.6391 44.1181 45.619L44.2701 45.5889C44.372 45.5687 44.4369 45.476 44.4151 45.3818Z" fill="#37474F"/>
<path d="M29.0488 63.1145C28.3382 62.9708 27.4833 62.9948 26.8282 62.704C26.1731 62.4132 25.5995 61.8283 24.9296 61.4862C24.863 61.4554 24.7778 61.5204 24.8334 61.582C25.2997 62.1156 25.977 62.8066 26.6839 63.0837C27.3908 63.3608 28.3457 63.2513 29.0748 63.2205C29.1229 63.2171 29.1081 63.1248 29.0488 63.1145Z" fill="#263238"/>
<path d="M47.375 59.2969C46.4127 59.7861 45.7021 60.6344 44.6732 61.0347C43.6443 61.4349 42.1343 61.3118 41.0388 61.2297C41.0092 61.2297 41.0092 61.2673 41.0388 61.2707C42.2453 61.4144 43.6629 61.8523 44.8472 61.4144C45.8206 61.0552 46.8531 60.1418 47.4638 59.3619C47.5008 59.3277 47.4268 59.2729 47.375 59.2969Z" fill="#263238"/>
<path d="M41.5097 63.9457C40.0292 64.2878 38.6154 64.7838 37.1794 65.2251C35.7434 65.6664 34.1631 65.3517 32.6864 65.1601C32.6123 65.1601 32.5753 65.249 32.6531 65.2696C34.0039 65.6424 35.5362 66.1385 36.9463 65.7622C38.534 65.3171 40.079 64.7507 41.5652 64.0688C41.6318 64.0346 41.5874 63.9286 41.5097 63.9457Z" fill="#263238"/>
<path d="M34.4295 58.688C33.7173 58.2061 32.9563 57.7891 32.1571 57.4429C31.3613 57.1213 30.5434 56.8545 29.7366 56.5534C29.2432 56.4221 28.7819 56.2037 28.3783 55.9103C28.0304 55.5682 27.8972 55.0277 27.7417 54.5967C27.4387 53.7605 27.2122 52.9023 27.0644 52.0311C27.0644 51.9729 26.9534 51.9866 26.9608 52.0311C27.0702 52.9533 27.247 53.8676 27.4901 54.7678C27.6973 55.493 27.8602 56.1669 28.6004 56.5432C30.4287 57.4634 32.5901 57.7713 34.3555 58.7941C34.4369 58.8522 34.5072 58.7359 34.4295 58.688Z" fill="#263238"/>
<path d="M38.0341 48.0765C34.2479 47.8028 30.843 46.1574 27.401 44.813C27.3825 44.813 27.3677 44.813 27.3825 44.8369C30.6135 46.6705 34.2035 48.0183 38.0341 48.1038C38.0526 48.1038 38.0526 48.0799 38.0341 48.0765Z" fill="#263238"/>
<path d="M44.2218 47.9087C42.8565 48.2695 41.426 48.3696 40.0174 48.2029C39.9915 48.2029 39.9841 48.244 40.0174 48.2474C41.4016 48.4321 43.019 48.7776 44.2588 47.9737C44.2847 47.9532 44.2662 47.8882 44.2218 47.9087Z" fill="#263238"/>
<path d="M34.9697 50.0468C33.6188 49.6842 32.2161 49.4892 30.8764 49.0924C29.5834 48.6847 28.3521 48.126 27.2123 47.4299C27.1827 47.4127 27.1568 47.4538 27.1864 47.4743C28.2449 48.1585 29.3219 48.87 30.547 49.2668C31.9804 49.6812 33.4523 49.9721 34.9438 50.1357C34.9956 50.1426 35.0252 50.0639 34.9697 50.0468Z" fill="#263238"/>
</svg>
